<?xml version="1.0" encoding="UTF-8"?>
<svg width="77px" height="77px" viewBox="0 0 77 77" version="1.1" xmlns="http://www.w3.org/2000/svg" xmlns:xlink="http://www.w3.org/1999/xlink">
    <!-- Generator: Sketch 62 (91390) - https://sketch.com -->
    <title>Path</title>
    <desc>Created with Sketch.</desc>
    <g id="Page-1" stroke="none" stroke-width="1" fill="none" fill-rule="evenodd">
        <g id="Box" transform="translate(-15.000000, -9.000000)" fill="#FDFFD6" stroke="#FDFFD6" stroke-width="2">
            <path d="M15,51 C15,41.6657862 18.6539553,36.1849994 24.6095236,29.9099819 C25.9043355,28.5457178 15,30 17,27 C19,24 27,19 30,19 C33,19 36.7242204,21.5626771 38.2898883,21.0069546 C41.7478373,19.7795807 45.8930141,19 50,19 C54.1069859,19 58.0487539,19.7073823 61.7101117,21.0069546 C63.2757796,21.5626771 67,19 70,19 C73,19 81,24 83,27 C85,30 74.0956645,28.5457178 75.3904764,29.9099819 C81.3460447,36.1849994 85,41.6657862 85,51 C85,70.3299662 69.3299662,82 50,82 C30.6700338,82 15,70.1366666 15,51 Z" id="Path" transform="translate(50.000000, 50.500000) rotate(45.000000) translate(-50.000000, -50.500000) "></path>
        </g>
    </g>
</svg>