<svg xmlns="http://www.w3.org/2000/svg" width="72" height="65" viewBox="0 0 72 65" style=""><title>Logo</title><desc></desc><g fill="none"><g style="stroke-width:1;stroke:hsl(60, 12%, 18%)"><path d="M1 33C1 23.7 4.7 18.2 10.6 11.9 11.9 10.5 1 12 3 9 5 6 13 1 16 1 19 1 22.7 3.6 24.3 3 27.7 1.8 31.9 1 36 1 40.1 1 44 1.7 47.7 3 49.3 3.6 53 1 56 1 59 1 67 6 69 9 71 12 60.1 10.5 61.4 11.9 67.3 18.2 71 23.7 71 33 71 52.3 55.3 64 36 64 16.7 64 1 52.1 1 33Z" class="VouZpaMQ_0"></path></g></g><style data-made-with="vivus-instant">.VouZpaMQ_0{stroke-dasharray:244 246;stroke-dashoffset:245;animation:VouZpaMQ_draw 3000ms ease-in-out 0ms forwards;}@keyframes VouZpaMQ_draw{100%{stroke-dashoffset:0;}}@keyframes VouZpaMQ_fade{0%{stroke-opacity:1;}95.1219512195122%{stroke-opacity:1;}100%{stroke-opacity:0;}}</style></svg>